<svg width="12" height="12" viewBox="0 0 12 12" fill="none" xmlns="http://www.w3.org/2000/svg">
<g clip-path="url(#clip0_2021_17)">
<path d="M3.75 0C4.14844 0 4.5 0.351562 4.5 0.75V1.5H7.5V0.75C7.5 0.351562 7.82812 0 8.25 0C8.64844 0 9 0.351562 9 0.75V1.5H10.125C10.7344 1.5 11.25 2.01562 11.25 2.625V3.75H0.75V2.625C0.75 2.01562 1.24219 1.5 1.875 1.5H3V0.75C3 0.351562 3.32812 0 3.75 0ZM0.75 4.5H11.25V10.875C11.25 11.5078 10.7344 12 10.125 12H1.875C1.24219 12 0.75 11.5078 0.75 10.875V4.5ZM2.25 6.375V7.125C2.25 7.33594 2.41406 7.5 2.625 7.5H3.375C3.5625 7.5 3.75 7.33594 3.75 7.125V6.375C3.75 6.1875 3.5625 6 3.375 6H2.625C2.41406 6 2.25 6.1875 2.25 6.375ZM5.25 6.375V7.125C5.25 7.33594 5.41406 7.5 5.625 7.5H6.375C6.5625 7.5 6.75 7.33594 6.75 7.125V6.375C6.75 6.1875 6.5625 6 6.375 6H5.625C5.41406 6 5.25 6.1875 5.25 6.375ZM8.625 6C8.41406 6 8.25 6.1875 8.25 6.375V7.125C8.25 7.33594 8.41406 7.5 8.625 7.5H9.375C9.5625 7.5 9.75 7.33594 9.75 7.125V6.375C9.75 6.1875 9.5625 6 9.375 6H8.625ZM2.25 9.375V10.125C2.25 10.3359 2.41406 10.5 2.625 10.5H3.375C3.5625 10.5 3.75 10.3359 3.75 10.125V9.375C3.75 9.1875 3.5625 9 3.375 9H2.625C2.41406 9 2.25 9.1875 2.25 9.375ZM5.625 9C5.41406 9 5.25 9.1875 5.25 9.375V10.125C5.25 10.3359 5.41406 10.5 5.625 10.5H6.375C6.5625 10.5 6.75 10.3359 6.75 10.125V9.375C6.75 9.1875 6.5625 9 6.375 9H5.625ZM8.25 9.375V10.125C8.25 10.3359 8.41406 10.5 8.625 10.5H9.375C9.5625 10.5 9.75 10.3359 9.75 10.125V9.375C9.75 9.1875 9.5625 9 9.375 9H8.625C8.41406 9 8.25 9.1875 8.25 9.375Z" fill="#63AA7E"/>
</g>
<defs>
<clipPath id="clip0_2021_17">
<rect width="12" height="12" fill="white"/>
</clipPath>
</defs>
</svg>
