<svg width="512" height="512" viewBox="0 0 512 512" fill="none" xmlns="http://www.w3.org/2000/svg">
<path d="M323.845 480.507C352.903 487.413 378.705 493.803 405.759 487.712C415.751 485.456 424.574 481.785 425.966 470.311C427.358 458.864 421.262 451.277 411.27 446.546C376.116 429.879 339.097 428.682 301.355 434.637C292.699 435.997 284.154 439.096 275.497 439.287C271.267 439.368 266.897 434.61 262.61 432.054C265.255 427.894 267.175 420.906 270.682 420.009C323.037 406.685 375.114 404.429 424.742 429.743C441.72 438.389 449.625 453.806 447.76 472.785C446.09 489.888 433.426 502.558 413.497 507.425C376.895 516.344 341.825 507.561 307.116 497.419C297.82 494.7 289.943 494.51 280.675 497.637C231.214 514.332 181.281 517.731 130.874 501.117C108.997 493.912 92.6861 481.132 85.0875 459.244C75.4849 431.537 90.6264 409.921 120.52 408.915C154.978 407.773 185.706 419.465 215.516 434.936C236.308 445.731 257.823 455.166 278.865 465.498C288.357 470.148 297.069 470.093 306.254 464.601C314.52 459.652 323.009 454.703 332.083 451.604C336.063 450.244 344.08 452.012 345.861 454.921C347.754 457.993 345.889 465.444 342.994 468.625C338.93 473.139 332.362 475.477 323.845 480.507ZM259.298 481.486C231.27 467.429 206.247 452.583 179.444 442.196C161.046 435.072 140.309 432.761 120.353 430.803C105.963 429.417 99.6723 438.933 105.935 451.848C110.249 460.767 116.929 471.126 125.391 475.123C167.976 495.353 212.287 494.265 259.298 481.486Z" fill="white"/>
<path d="M179.165 316.821C169.869 294.906 168.227 270.598 173.153 247.35C175.881 234.462 178.609 221.574 181.754 208.767C183.674 200.964 186.458 191.148 197.925 195.009C208.084 198.435 204.939 207.109 202.573 214.64C194.669 239.927 189.269 265.432 194.808 292.051C201.738 325.414 222.085 347.791 254.01 360.136C258.435 361.849 264.976 361.196 269.569 359.347C312.711 341.973 335.368 299.8 327.268 251.755C324.93 237.997 319.976 224.646 317.916 210.861C317.749 209.828 317.805 208.794 317.999 207.707C319.447 199.767 329.439 196.042 335.507 201.507C336.314 202.242 336.898 203.03 337.233 203.9C349.062 236.746 355.297 270.38 345.388 304.966C334.115 344.229 307.59 369.38 268.511 382.16C263.334 383.846 256.571 383.438 251.282 381.779C217.325 371.039 192.08 347.302 179.165 316.821Z" fill="white"/>
<path d="M87.2585 59.9546C120.241 62.8096 147.491 71.2386 168.7 92.8821C187.821 112.405 190.521 136.06 183.118 160.994C182.06 164.556 175.602 168.58 171.316 168.933C128.257 172.74 96.3879 145.196 89.4852 98.157C87.7317 86.2477 88.0378 74.0392 87.2585 59.9546ZM161.741 144.843C169.423 120.97 144.846 92.8549 113.088 88.8579C112.197 118.115 134.743 148.976 161.741 144.843Z" fill="white"/>
<path d="M0 211.133C54.4426 168.09 115.983 178.45 141.089 234.163C106.714 281.175 40.9711 270.734 0 211.133ZM111.975 230.166C95.5529 205.341 66.1328 200.556 37.1858 217.169C59.6197 242.673 88.0378 247.812 111.975 230.166Z" fill="white"/>
<path d="M512 211.323C468.552 271.25 410.518 280.821 370.911 235.251C392.343 178.695 457.641 167.356 512 211.323ZM475.315 216.87C441.08 200.664 411.493 206.456 400.721 230.846C423.934 247.676 451.434 242.755 475.315 216.87Z" fill="white"/>
<path d="M423.044 60.4712C426.05 90.9788 422.348 119.094 403.644 143.51C387.472 164.637 364.37 171.109 338.485 168.77C334.867 168.444 329.829 163.903 328.632 160.287C318.946 131.112 327.964 102.671 352.903 84.154C373.221 69.145 396.435 61.4773 423.044 60.4712ZM349.897 144.952C378.788 145.223 397.27 123.825 398.856 89.1026C370.327 91.6585 342.243 119.012 349.897 144.952Z" fill="white"/>
<path d="M28.6687 385.341C42.001 346.35 56.9755 315.027 95.7478 302.601C114.48 296.592 132.433 300.67 149.328 308.936C152.417 310.459 155.117 316.685 154.727 320.411C150.719 357.77 129.232 380.991 90.7655 385.966C71.5046 388.441 51.5479 385.749 28.6687 385.341ZM129.621 326.474C100.674 317.556 72.618 333.788 63.9339 363.779C97.3064 368.836 121.661 355.323 129.621 326.474Z" fill="white"/>
<path d="M480.771 382.486C449.513 389.963 418.729 391.676 389.727 375.308C367.293 362.664 358.804 341.429 356.883 317.392C356.66 314.565 360 310.16 362.895 308.61C390.061 293.982 421.875 298.033 445.227 318.562C461.872 333.217 475.844 358.015 480.771 382.486ZM447.676 363.725C439.827 333.326 408.153 315.598 382.546 327.29C384.717 351.19 413.914 369.108 447.676 363.725Z" fill="white"/>
<path d="M256.097 0C278.42 23.3565 295.092 47.583 295.593 79.5316C295.983 105.58 282.484 124.015 261.302 137.746C258.602 139.486 252.479 138.942 249.473 137.066C221.361 119.474 210.144 89.6464 219.246 58.2144C225.703 35.9728 238.228 17.4018 256.097 0ZM256.376 112.432C278.42 90.2718 277.474 57.8338 254.901 37.9033C233.719 69.1178 233.97 92.6646 256.376 112.432Z" fill="white"/>
<path d="M219.44 283.84C219.58 261.326 238.089 243.272 260.857 243.462C283.541 243.652 302.106 262.251 301.828 284.465C301.55 306.979 283.096 324.761 260.189 324.598C237.171 324.462 219.329 306.598 219.44 283.84ZM262.443 264.888C252.117 263.855 242.487 271.441 241.039 281.692C239.509 292.459 247.636 302.302 258.742 303.145C269.819 303.988 279.895 295.749 280.591 285.281C281.231 275.547 272.658 265.894 262.443 264.888Z" fill="white"/>
</svg>
