<svg width="101" height="100" viewBox="0 0 101 100" fill="none" xmlns="http://www.w3.org/2000/svg">
<path d="M97.0197 67.05C98.5182 61.9 97.4193 56.45 94.1725 52.15C95.4712 51.45 96.67 50.7 97.6191 50C96.67 49.3 95.4712 48.5 94.1725 47.85C97.4193 43.55 98.5182 38.1 97.0197 32.95C97.4692 32.85 97.8688 32.65 98.2684 32.4C99.4173 31.7 100.017 30.5 100.566 29.3C99.3174 28.8 98.0686 28.45 96.72 28.7C96.2704 28.8 95.8209 28.95 95.4712 29.2C92.8738 24.5 88.2784 21.45 82.9337 20.7C83.3833 19.3 83.683 17.9 83.8328 16.75C82.684 16.9 81.2854 17.2 79.8868 17.65C79.1375 12.35 76.0906 7.7 71.3953 5.1C71.645 4.7 71.7949 4.3 71.8948 3.85C72.1945 2.5 71.7949 1.25 71.2954 0C70.0966 0.55 68.8978 1.15 68.1485 2.3C67.8988 2.7 67.699 3.1 67.5991 3.55C62.4542 2.05 57.0097 3.15 52.714 6.4C52.1146 5.1 51.3154 3.9 50.6161 2.95C49.9168 3.9 49.1176 5.1 48.4682 6.4C44.1725 3.15 38.728 2.1 33.5831 3.55C33.4832 3.1 33.3333 2.7 33.0836 2.3C32.3343 1.15 31.1355 0.55 29.9367 0C29.4372 1.25 29.0876 2.5 29.3373 3.85C29.4372 4.3 29.5871 4.75 29.8368 5.1C25.1415 7.7 22.0946 12.3 21.3453 17.65C19.9467 17.2 18.5481 16.9 17.3993 16.75C17.5491 17.9 17.8488 19.3 18.2984 20.7C12.9537 21.45 8.35832 24.5 5.76092 29.2C5.36132 28.95 4.96172 28.8 4.51217 28.7C3.16352 28.4 1.91477 28.8 0.666016 29.3C1.21547 30.5 1.81487 31.7 2.96372 32.45C3.36332 32.7 3.76292 32.9 4.21247 33C2.71397 38.15 3.81287 43.6 7.05962 47.9C5.76092 48.5 4.56212 49.3 3.61307 50C4.56212 50.7 5.76092 51.5 7.05962 52.15C3.81287 56.45 2.71397 61.9 4.21247 67.05C3.76292 67.15 3.36332 67.35 2.96372 67.6C1.81487 68.3 1.21547 69.5 0.666016 70.7C1.91477 71.2 3.16352 71.55 4.51217 71.3C4.96172 71.2 5.41127 71.05 5.76092 70.8C8.35832 75.5 12.9537 78.55 18.2984 79.3C17.8488 80.7 17.5491 82.1 17.3993 83.25C18.5481 83.1 19.9467 82.8 21.3453 82.35C22.0946 87.65 25.1415 92.3 29.8368 94.9C29.5871 95.3 29.4372 95.7 29.3373 96.15C29.0376 97.5 29.4372 98.75 29.9367 100C31.1355 99.45 32.3343 98.85 33.0836 97.7C33.3333 97.3 33.5331 96.9 33.633 96.45C38.7779 97.95 44.2225 96.85 48.5182 93.6C49.2175 94.9 49.9667 96.1 50.666 97.05C51.3653 96.1 52.1645 94.9 52.8139 93.6C57.1096 96.85 62.5541 97.95 67.699 96.45C67.7989 96.9 67.9987 97.3 68.2484 97.7C68.9977 98.85 70.1965 99.45 71.3953 100C71.8948 98.75 72.2444 97.5 71.9947 96.15C71.8948 95.7 71.7449 95.25 71.4952 94.9C76.1905 92.3 79.2374 87.7 79.9867 82.35C81.3853 82.8 82.7839 83.1 83.9327 83.25C83.7829 82.1 83.4832 80.7 83.0336 79.3C88.3283 78.55 92.9737 75.5 95.5711 70.8C95.9707 71.05 96.3703 71.2 96.8199 71.3C98.1685 71.6 99.4173 71.2 100.666 70.7C100.117 69.5 99.5172 68.3 98.3683 67.55C97.8688 67.3 97.4692 67.15 97.0197 67.05ZM91.9248 46.8C91.4752 46.65 91.0256 46.55 90.5761 46.45C90.4762 45.4 90.3263 44.4 90.1765 43.4C93.0237 41.9 94.4722 39.05 95.1715 35.85C95.6211 39.75 94.5222 43.65 91.9248 46.8ZM90.676 48.85C91.5751 49.15 92.4243 49.55 93.2235 50C92.4243 50.45 91.5252 50.85 90.676 51.15C90.676 50.75 90.726 50.4 90.726 50C90.726 49.6 90.676 49.25 90.676 48.85ZM93.2734 32.3C93.0736 35.65 92.1745 38.9 89.627 40.75C89.4272 39.85 89.1775 38.9 88.9277 38C89.2774 36.75 89.677 35.5 90.0266 34.35C90.1265 34.1 90.1265 33.85 90.0266 33.65C89.9267 33.45 89.7769 33.3 89.5272 33.15C88.3783 32.6 87.2294 31.95 86.0806 31.35C85.631 30.5 85.1315 29.65 84.632 28.85C87.7289 28.3 90.726 30.1 93.2734 32.3ZM82.0346 23.05C86.1305 23.45 89.627 25.4 92.0746 28.5C89.3273 26.7 86.2304 25.75 83.1335 26.7C82.5341 25.9 81.9347 25.1 81.2854 24.3C81.5851 23.85 81.8348 23.5 82.0346 23.05ZM80.7359 19.85C80.4862 20.75 80.1365 21.65 79.687 22.5C79.1375 21.95 78.5881 21.4 78.0386 20.85C78.9377 20.45 79.8368 20.1 80.7359 19.85ZM77.5391 18.55C77.0896 18.75 76.69 19.05 76.2404 19.3C75.4912 18.65 74.642 18.1 73.8428 17.5C74.8418 14.4 73.8428 11.3 72.0446 8.5C75.1915 10.9 77.1895 14.45 77.5391 18.55ZM68.2984 7.3C70.5461 9.85 72.3443 12.85 71.7449 16C70.9457 15.5 70.1465 15.05 69.3473 14.6C68.698 13.4 68.0486 12.2 67.4492 11C67.3493 10.75 67.1495 10.6 66.9497 10.5C66.7499 10.45 66.5002 10.45 66.2504 10.5C65.0017 10.9 63.653 11.3 62.3044 11.7C61.4552 11.55 60.6061 11.3 59.7569 11.1C61.5551 8.5 64.9018 7.55 68.2984 7.3ZM64.7519 5.45C61.5052 6.15 58.658 7.7 57.1595 10.65C56.2105 10.5 55.2115 10.35 54.2624 10.3C54.1126 9.75 54.0127 9.25 53.8129 8.7C56.9597 6.05 60.8558 4.95 64.7519 5.45ZM50.6161 7.35C51.0656 8.25 51.5152 9.2 51.8149 10.15C51.4652 10.15 51.1655 10.1 50.8658 10.1C50.3663 10.1 49.9168 10.15 49.4173 10.15C49.717 9.2 50.1166 8.25 50.6161 7.35ZM47.4193 8.65C47.2195 9.2 47.1196 9.75 47.0197 10.3C46.0207 10.35 45.0716 10.55 44.1226 10.7C42.6241 7.7 39.7769 6.15 36.4802 5.45C40.3763 4.95 44.2724 6.05 47.4193 8.65ZM32.9337 7.3C36.3803 7.55 39.727 8.5 41.5252 11.25C40.726 11.4 39.9268 11.6 39.1276 11.85C37.7289 11.4 36.3303 11 34.9817 10.55C34.7319 10.45 34.4822 10.45 34.2824 10.55C34.0826 10.65 33.9327 10.8 33.7829 11.05C33.1835 12.35 32.4342 13.65 31.7349 14.95C30.9857 15.4 30.2864 15.85 29.5371 16.3C28.7879 13.05 30.636 9.95 32.9337 7.3ZM29.1375 8.5C27.2894 11.35 26.2904 14.55 27.4392 17.75C26.69 18.3 25.9407 18.85 25.2414 19.45C24.7419 19.15 24.2424 18.8 23.693 18.55C24.0426 14.45 26.0406 10.9 29.1375 8.5ZM23.4432 21.05C22.8438 21.6 22.2444 22.2 21.695 22.85C21.1955 21.9 20.7959 20.85 20.4962 19.85C21.4952 20.15 22.5441 20.55 23.4432 21.05ZM19.1975 23.05C19.4472 23.6 19.7969 24.1 20.0966 24.65C19.4972 25.3 18.9477 26.05 18.4482 26.8C15.2015 25.65 12.0047 26.65 9.15752 28.5C11.5551 25.4 15.1016 23.4 19.1975 23.05ZM17.0496 28.95C16.6001 29.6 16.1505 30.3 15.7509 31C14.4023 31.75 13.0536 32.5 11.705 33.2C11.4552 33.3 11.3054 33.5 11.2055 33.7C11.1555 33.9 11.1555 34.15 11.2055 34.4C11.705 35.85 12.1545 37.35 12.5541 38.85C12.4043 39.55 12.2045 40.25 12.0546 41C9.20747 39.25 8.20847 35.8 7.95872 32.3C10.6061 30 13.7529 28.1 17.0496 28.95ZM6.11057 35.85C6.85982 39.2 8.45822 42.1 11.5551 43.55C11.4053 44.45 11.2554 45.4 11.1555 46.3C10.5561 46.45 9.90677 46.55 9.30737 46.8C6.70997 43.65 5.61107 39.75 6.11057 35.85ZM11.0556 51.3C10.0067 50.95 8.95772 50.5 8.00867 50C8.95772 49.5 10.0067 49.05 11.0556 48.7C11.0556 49.15 11.0057 49.55 11.0057 50C11.0057 50.45 11.0057 50.85 11.0556 51.3ZM9.30737 53.2C9.90677 53.45 10.5062 53.55 11.1555 53.7C11.2554 54.65 11.4053 55.55 11.5551 56.45C8.45822 57.9 6.80987 60.8 6.11057 64.15C5.61107 60.25 6.70997 56.35 9.30737 53.2ZM7.95872 67.7C8.15852 64.2 9.15752 60.8 12.0047 59.05C12.1545 59.8 12.3543 60.5 12.5541 61.2C12.1046 62.7 11.655 64.25 11.2055 65.65C11.1056 65.9 11.1056 66.15 11.2055 66.35C11.3054 66.55 11.4552 66.7 11.705 66.85C13.0536 67.5 14.4023 68.25 15.7509 69C16.1505 69.7 16.6001 70.4 16.9997 71.1C13.7529 71.9 10.6061 70 7.95872 67.7ZM19.1975 76.95C15.1016 76.55 11.5551 74.6 9.15752 71.5C12.0546 73.35 15.2514 74.35 18.4482 73.2C18.9977 73.95 19.4972 74.7 20.0966 75.4C19.7469 75.9 19.4472 76.4 19.1975 76.95ZM20.4962 80.15C20.7959 79.15 21.1955 78.1 21.695 77.15C22.2444 77.75 22.8438 78.35 23.4432 78.95C22.5441 79.45 21.4952 79.85 20.4962 80.15ZM23.693 81.45C24.2424 81.2 24.7419 80.85 25.2414 80.55C25.9407 81.15 26.69 81.7 27.4392 82.25C26.2904 85.45 27.2894 88.65 29.1375 91.5C26.0406 89.1 24.0426 85.55 23.693 81.45ZM32.9337 92.7C30.636 90.1 28.7879 86.95 29.5371 83.7C30.2364 84.15 30.9857 84.6 31.7349 85.05C32.4342 86.35 33.1835 87.7 33.8328 88.95C33.9327 89.2 34.1325 89.35 34.3323 89.45C34.5321 89.5 34.7819 89.5 35.0316 89.45C36.3803 89 37.7789 88.6 39.1775 88.15C39.9767 88.4 40.7759 88.55 41.5751 88.75C39.7269 91.5 36.3803 92.45 32.9337 92.7ZM36.4802 94.55C39.7769 93.85 42.6241 92.25 44.1226 89.3C45.0716 89.45 46.0207 89.6 47.0197 89.7C47.1695 90.25 47.2694 90.8 47.4692 91.3C44.2724 93.95 40.3763 95.05 36.4802 94.55ZM50.6161 92.65C50.1166 91.75 49.717 90.8 49.4173 89.85C49.9168 89.85 50.3663 89.9 50.8658 89.9C51.2155 89.9 51.5152 89.85 51.8149 89.85C51.5152 90.8 51.0656 91.8 50.6161 92.65ZM50.8658 86.9C30.5361 86.9 14.0027 70.35 14.0027 50C14.0027 29.65 30.5361 13.1 50.8658 13.1C71.1955 13.1 87.7289 29.65 87.7289 50C87.7289 70.35 71.1955 86.9 50.8658 86.9ZM53.8129 91.35C54.0127 90.85 54.1126 90.3 54.2624 89.75C55.2614 89.65 56.2105 89.55 57.1595 89.4C58.658 92.35 61.5052 93.9 64.7519 94.6C60.8558 95.05 56.9597 93.95 53.8129 91.35ZM68.2984 92.7C64.9018 92.5 61.6051 91.55 59.8069 88.9C60.656 88.7 61.5052 88.5 62.3543 88.25C63.703 88.65 65.0017 89.05 66.3004 89.45C66.5501 89.55 66.7999 89.55 66.9997 89.45C67.1995 89.35 67.3493 89.2 67.4992 88.95C68.0986 87.75 68.7479 86.55 69.3973 85.35C70.1965 84.9 70.9957 84.45 71.7949 83.95C72.3443 87.1 70.5461 90.15 68.2984 92.7ZM72.0946 91.5C73.8928 88.7 74.8418 85.65 73.8928 82.5C74.692 81.9 75.4912 81.35 76.2904 80.7C76.7399 80.95 77.0896 81.2 77.5891 81.45C77.1895 85.55 75.1915 89.1 72.0946 91.5ZM78.0886 79.1C78.638 78.55 79.1875 78.05 79.7369 77.45C80.1365 78.3 80.4862 79.2 80.7859 80.1C79.8368 79.9 78.9377 79.55 78.0886 79.1ZM82.0346 76.95C81.8348 76.5 81.5351 76.1 81.3353 75.7C81.9847 74.95 82.5841 74.15 83.1835 73.3C86.2804 74.25 89.3273 73.25 92.1245 71.5C89.677 74.6 86.1305 76.6 82.0346 76.95ZM84.632 71.15C85.1315 70.35 85.631 69.5 86.0806 68.65C87.2294 68.05 88.3783 67.4 89.5272 66.85C89.7769 66.75 89.9267 66.55 90.0266 66.35C90.0766 66.15 90.0766 65.9 90.0266 65.65C89.627 64.45 89.2774 63.2 88.9277 62C89.2274 61.1 89.4272 60.2 89.627 59.25C92.1745 61.05 93.0736 64.35 93.2734 67.7C90.726 69.9 87.7289 71.7 84.632 71.15ZM95.1216 64.15C94.4223 60.95 92.9238 58.15 90.1265 56.6C90.2764 55.6 90.4262 54.6 90.5261 53.55C90.9757 53.4 91.4253 53.35 91.8748 53.2C94.5222 56.35 95.6211 60.25 95.1216 64.15Z" fill="#63AA7E"/>
<path d="M69.7802 50.9996V45.1756L70.3562 45.8476H65.2362C62.8895 45.8476 61.0442 45.357 59.7002 44.3756C58.3775 43.373 57.7162 41.933 57.7162 40.0556C57.7162 38.0503 58.4202 36.525 59.8282 35.4796C61.2575 34.4343 63.1562 33.9116 65.5242 33.9116H73.3642V50.9996H69.7802ZM57.4922 50.9996L62.1002 44.4716H66.1962L61.7802 50.9996H57.4922ZM69.7802 43.8956V36.2156L70.3562 37.2716H65.6522C64.4149 37.2716 63.4549 37.5063 62.7722 37.9756C62.1109 38.4236 61.7802 39.1596 61.7802 40.1836C61.7802 42.1036 63.0282 43.0636 65.5242 43.0636H70.3562L69.7802 43.8956Z" fill="#63AA7E"/>
<path d="M46.5039 43.7679V40.4399H55.3039V43.7679H46.5039Z" fill="#63AA7E"/>
<path d="M27.3952 50.9998V48.2158L36.2913 39.7678C37.0379 39.0638 37.5926 38.4451 37.9553 37.9118C38.3179 37.3785 38.5526 36.8878 38.6593 36.4398C38.7873 35.9705 38.8513 35.5331 38.8513 35.1278C38.8513 34.1038 38.4993 33.3145 37.7953 32.7598C37.0913 32.1838 36.0566 31.8958 34.6913 31.8958C33.6033 31.8958 32.6113 32.0878 31.7153 32.4718C30.8406 32.8558 30.0833 33.4425 29.4433 34.2318L26.5312 31.9918C27.4059 30.8185 28.5793 29.9118 30.0513 29.2718C31.5446 28.6105 33.2086 28.2798 35.0433 28.2798C36.6646 28.2798 38.0726 28.5465 39.2673 29.0798C40.4833 29.5918 41.4113 30.3278 42.0513 31.2878C42.7126 32.2478 43.0433 33.3891 43.0433 34.7118C43.0433 35.4371 42.9473 36.1625 42.7553 36.8878C42.5633 37.5918 42.2006 38.3385 41.6673 39.1278C41.1339 39.9171 40.3553 40.8025 39.3313 41.7838L31.6833 49.0478L30.8193 47.4798H43.9072V50.9998H27.3952Z" fill="#63AA7E"/>
<path d="M79.2221 67.0001V64.0881L79.5101 64.4241H76.9501C75.7768 64.4241 74.8541 64.1787 74.1821 63.6881C73.5208 63.1867 73.1901 62.4667 73.1901 61.5281C73.1901 60.5254 73.5421 59.7627 74.2461 59.2401C74.9608 58.7174 75.9101 58.4561 77.0941 58.4561H81.0141V67.0001H79.2221ZM73.0781 67.0001L75.3821 63.7361H77.4301L75.2221 67.0001H73.0781ZM79.2221 63.4481V59.6081L79.5101 60.1361H77.1581C76.5395 60.1361 76.0595 60.2534 75.7181 60.4881C75.3875 60.7121 75.2221 61.0801 75.2221 61.5921C75.2221 62.5521 75.8461 63.0321 77.0941 63.0321H79.5101L79.2221 63.4481Z" fill="#63AA7E"/>
<path d="M62.1133 66.9841L62.2093 65.3041C62.2839 65.3147 62.3533 65.3254 62.4173 65.3361C62.4813 65.3467 62.5399 65.3521 62.5933 65.3521C62.9239 65.3521 63.1799 65.2507 63.3613 65.0481C63.5426 64.8454 63.6759 64.5734 63.7613 64.2321C63.8573 63.8801 63.9213 63.4907 63.9533 63.0641C63.9959 62.6267 64.0279 62.1894 64.0493 61.7521L64.1933 58.4561H71.1053V67.0001H69.1053V59.6081L69.5693 60.1521H65.5053L65.9373 59.5921L65.8253 61.8481C65.7933 62.6054 65.7293 63.3094 65.6333 63.9601C65.5479 64.6001 65.4093 65.1601 65.2173 65.6401C65.0359 66.1201 64.7799 66.4934 64.4493 66.7601C64.1293 67.0267 63.7186 67.1601 63.2173 67.1601C63.0573 67.1601 62.8813 67.1441 62.6893 67.1121C62.5079 67.0801 62.3159 67.0374 62.1133 66.9841Z" fill="#63AA7E"/>
<path d="M57.2669 67.1119C56.3175 67.1119 55.4855 66.9252 54.7709 66.5519C54.0669 66.1679 53.5175 65.6452 53.1229 64.9839C52.7389 64.3225 52.5469 63.5705 52.5469 62.7279C52.5469 61.8745 52.7335 61.1225 53.1069 60.4719C53.4909 59.8105 54.0135 59.2932 54.6749 58.9199C55.3469 58.5465 56.1095 58.3599 56.9629 58.3599C57.7949 58.3599 58.5362 58.5412 59.1869 58.9039C59.8375 59.2665 60.3495 59.7785 60.7229 60.4399C61.0962 61.1012 61.2829 61.8799 61.2829 62.7759C61.2829 62.8612 61.2775 62.9572 61.2669 63.0639C61.2669 63.1705 61.2615 63.2719 61.2509 63.3679H54.1309V62.0399H60.1949L59.4109 62.4559C59.4215 61.9652 59.3202 61.5332 59.1069 61.1599C58.8935 60.7865 58.6002 60.4932 58.2269 60.2799C57.8642 60.0665 57.4429 59.9599 56.9629 59.9599C56.4722 59.9599 56.0402 60.0665 55.6669 60.2799C55.3042 60.4932 55.0162 60.7919 54.8029 61.1759C54.6002 61.5492 54.4989 61.9919 54.4989 62.5039V62.8239C54.4989 63.3359 54.6162 63.7892 54.8509 64.1839C55.0855 64.5785 55.4162 64.8825 55.8429 65.0959C56.2695 65.3092 56.7602 65.4159 57.3149 65.4159C57.7949 65.4159 58.2269 65.3412 58.6109 65.1919C58.9949 65.0425 59.3362 64.8079 59.6349 64.4879L60.7069 65.7199C60.3229 66.1679 59.8375 66.5145 59.2509 66.7599C58.6749 66.9945 58.0135 67.1119 57.2669 67.1119Z" fill="#63AA7E"/>
<path d="M48.2337 66.0721V60.1521H44.9537L44.9057 61.5281C44.8844 62.0187 44.8524 62.4934 44.8097 62.9521C44.7671 63.4001 44.6977 63.8161 44.6017 64.2001C44.5057 64.5734 44.3671 64.8827 44.1857 65.1281C44.0044 65.3734 43.7644 65.5334 43.4657 65.6081L41.4817 65.3041C41.8017 65.3041 42.0577 65.2027 42.2497 65.0001C42.4524 64.7867 42.6071 64.4987 42.7137 64.1361C42.8311 63.7627 42.9164 63.3414 42.9697 62.8721C43.0231 62.3921 43.0604 61.8961 43.0817 61.3841L43.1937 58.4561H50.2337V66.0721H48.2337ZM41.1777 68.9041V65.3041H51.4977V68.9041H49.6257V67.0001H43.0337V68.9041H41.1777Z" fill="#63AA7E"/>
<path d="M36.2825 67.1119C35.3332 67.1119 34.5012 66.9252 33.7865 66.5519C33.0825 66.1679 32.5332 65.6452 32.1385 64.9839C31.7545 64.3225 31.5625 63.5705 31.5625 62.7279C31.5625 61.8745 31.7492 61.1225 32.1225 60.4719C32.5065 59.8105 33.0292 59.2932 33.6905 58.9199C34.3625 58.5465 35.1252 58.3599 35.9785 58.3599C36.8105 58.3599 37.5518 58.5412 38.2025 58.9039C38.8532 59.2665 39.3652 59.7785 39.7385 60.4399C40.1118 61.1012 40.2985 61.8799 40.2985 62.7759C40.2985 62.8612 40.2932 62.9572 40.2825 63.0639C40.2825 63.1705 40.2772 63.2719 40.2665 63.3679H33.1465V62.0399H39.2105L38.4265 62.4559C38.4372 61.9652 38.3358 61.5332 38.1225 61.1599C37.9092 60.7865 37.6158 60.4932 37.2425 60.2799C36.8798 60.0665 36.4585 59.9599 35.9785 59.9599C35.4878 59.9599 35.0558 60.0665 34.6825 60.2799C34.3198 60.4932 34.0318 60.7919 33.8185 61.1759C33.6158 61.5492 33.5145 61.9919 33.5145 62.5039V62.8239C33.5145 63.3359 33.6318 63.7892 33.8665 64.1839C34.1012 64.5785 34.4318 64.8825 34.8585 65.0959C35.2852 65.3092 35.7758 65.4159 36.3305 65.4159C36.8105 65.4159 37.2425 65.3412 37.6265 65.1919C38.0105 65.0425 38.3518 64.8079 38.6505 64.4879L39.7225 65.7199C39.3385 66.1679 38.8532 66.5145 38.2665 66.7599C37.6905 66.9945 37.0292 67.1119 36.2825 67.1119Z" fill="#63AA7E"/>
<path d="M21.3145 67.0001V58.4561H23.3145V61.9281H27.6185V58.4561H29.6185V67.0001H27.6185V63.6241H23.3145V67.0001H21.3145Z" fill="#63AA7E"/>
</svg>
