<svg width="101" height="100" viewBox="0 0 101 100" fill="none" xmlns="http://www.w3.org/2000/svg">
<path d="M96.6876 67.05C98.1861 61.9 97.0872 56.45 93.8405 52.15C95.1392 51.45 96.338 50.7 97.287 50C96.338 49.3 95.1392 48.5 93.8405 47.85C97.0872 43.55 98.1861 38.1 96.6876 32.95C97.1372 32.85 97.5368 32.65 97.9364 32.4C99.0852 31.7 99.6846 30.5 100.234 29.3C98.9853 28.8 97.7366 28.45 96.3879 28.7C95.9384 28.8 95.4888 28.95 95.1392 29.2C92.5418 24.5 87.9464 21.45 82.6017 20.7C83.0513 19.3 83.351 17.9 83.5008 16.75C82.352 16.9 80.9534 17.2 79.5548 17.65C78.8055 12.35 75.7586 7.7 71.0632 5.1C71.313 4.7 71.4629 4.3 71.5628 3.85C71.8625 2.5 71.4629 1.25 70.9634 0C69.7646 0.55 68.5657 1.15 67.8165 2.3C67.5667 2.7 67.3669 3.1 67.267 3.55C62.1222 2.05 56.6776 3.15 52.3819 6.4C51.7825 5.1 50.9833 3.9 50.284 2.95C49.5847 3.9 48.7855 5.1 48.1362 6.4C43.8405 3.15 38.3959 2.1 33.2511 3.55C33.1512 3.1 33.0013 2.7 32.7516 2.3C32.0023 1.15 30.8035 0.55 29.6047 0C29.1052 1.25 28.7556 2.5 29.0053 3.85C29.1052 4.3 29.2551 4.75 29.5048 5.1C24.8095 7.7 21.7626 12.3 21.0133 17.65C19.6147 17.2 18.2161 16.9 17.0672 16.75C17.2171 17.9 17.5168 19.3 17.9664 20.7C12.6217 21.45 8.02629 24.5 5.42889 29.2C5.02929 28.95 4.62969 28.8 4.18014 28.7C2.83149 28.4 1.58274 28.8 0.333984 29.3C0.883435 30.5 1.48284 31.7 2.63169 32.45C3.03129 32.7 3.43089 32.9 3.88044 33C2.38194 38.15 3.48084 43.6 6.72759 47.9C5.42889 48.5 4.23009 49.3 3.28104 50C4.23009 50.7 5.42889 51.5 6.72759 52.15C3.48084 56.45 2.38194 61.9 3.88044 67.05C3.43089 67.15 3.03129 67.35 2.63169 67.6C1.48284 68.3 0.883435 69.5 0.333984 70.7C1.58274 71.2 2.83149 71.55 4.18014 71.3C4.62969 71.2 5.07924 71.05 5.42889 70.8C8.02629 75.5 12.6217 78.55 17.9664 79.3C17.5168 80.7 17.2171 82.1 17.0672 83.25C18.2161 83.1 19.6147 82.8 21.0133 82.35C21.7626 87.65 24.8095 92.3 29.5048 94.9C29.2551 95.3 29.1052 95.7 29.0053 96.15C28.7056 97.5 29.1052 98.75 29.6047 100C30.8035 99.45 32.0023 98.85 32.7516 97.7C33.0013 97.3 33.2011 96.9 33.301 96.45C38.4459 97.95 43.8904 96.85 48.1861 93.6C48.8854 94.9 49.6347 96.1 50.334 97.05C51.0333 96.1 51.8325 94.9 52.4818 93.6C56.7775 96.85 62.2221 97.95 67.3669 96.45C67.4668 96.9 67.6666 97.3 67.9164 97.7C68.6656 98.85 69.8644 99.45 71.0632 100C71.5627 98.75 71.9124 97.5 71.6626 96.15C71.5627 95.7 71.4129 95.25 71.1632 94.9C75.8585 92.3 78.9054 87.7 79.6547 82.35C81.0533 82.8 82.4519 83.1 83.6007 83.25C83.4509 82.1 83.1512 80.7 82.7016 79.3C87.9963 78.55 92.6417 75.5 95.2391 70.8C95.6387 71.05 96.0383 71.2 96.4878 71.3C97.8365 71.6 99.0852 71.2 100.334 70.7C99.7845 69.5 99.1851 68.3 98.0363 67.55C97.5368 67.3 97.1372 67.15 96.6876 67.05ZM91.5927 46.8C91.1432 46.65 90.6936 46.55 90.2441 46.45C90.1442 45.4 89.9943 44.4 89.8445 43.4C92.6916 41.9 94.1402 39.05 94.8395 35.85C95.289 39.75 94.1901 43.65 91.5927 46.8ZM90.344 48.85C91.2431 49.15 92.0922 49.55 92.8914 50C92.0922 50.45 91.1931 50.85 90.344 51.15C90.344 50.75 90.3939 50.4 90.3939 50C90.3939 49.6 90.344 49.25 90.344 48.85ZM92.9414 32.3C92.7416 35.65 91.8425 38.9 89.295 40.75C89.0952 39.85 88.8455 38.9 88.5957 38C88.9454 36.75 89.345 35.5 89.6946 34.35C89.7945 34.1 89.7945 33.85 89.6946 33.65C89.5947 33.45 89.4449 33.3 89.1951 33.15C88.0463 32.6 86.8974 31.95 85.7486 31.35C85.299 30.5 84.7995 29.65 84.3 28.85C87.3969 28.3 90.3939 30.1 92.9414 32.3ZM81.7026 23.05C85.7985 23.45 89.295 25.4 91.7426 28.5C88.9953 26.7 85.8984 25.75 82.8015 26.7C82.2021 25.9 81.6027 25.1 80.9534 24.3C81.2531 23.85 81.5028 23.5 81.7026 23.05ZM80.4039 19.85C80.1542 20.75 79.8045 21.65 79.355 22.5C78.8055 21.95 78.2561 21.4 77.7066 20.85C78.6057 20.45 79.5048 20.1 80.4039 19.85ZM77.2071 18.55C76.7576 18.75 76.358 19.05 75.9084 19.3C75.1592 18.65 74.31 18.1 73.5108 17.5C74.5098 14.4 73.5108 11.3 71.7126 8.5C74.8595 10.9 76.8575 14.45 77.2071 18.55ZM67.9663 7.3C70.2141 9.85 72.0123 12.85 71.4129 16C70.6137 15.5 69.8145 15.05 69.0153 14.6C68.3659 13.4 67.7166 12.2 67.1172 11C67.0173 10.75 66.8175 10.6 66.6177 10.5C66.4179 10.45 66.1681 10.45 65.9184 10.5C64.6696 10.9 63.321 11.3 61.9723 11.7C61.1232 11.55 60.274 11.3 59.4249 11.1C61.2231 8.5 64.5697 7.55 67.9663 7.3ZM64.4199 5.45C61.1731 6.15 58.326 7.7 56.8275 10.65C55.8784 10.5 54.8794 10.35 53.9304 10.3C53.7805 9.75 53.6806 9.25 53.4808 8.7C56.6277 6.05 60.5238 4.95 64.4199 5.45ZM50.284 7.35C50.7336 8.25 51.1831 9.2 51.4828 10.15C51.1332 10.15 50.8335 10.1 50.5338 10.1C50.0343 10.1 49.5847 10.15 49.0852 10.15C49.3849 9.2 49.7845 8.25 50.284 7.35ZM47.0872 8.65C46.8874 9.2 46.7875 9.75 46.6876 10.3C45.6886 10.35 44.7396 10.55 43.7905 10.7C42.292 7.7 39.4449 6.15 36.1482 5.45C40.0443 4.95 43.9404 6.05 47.0872 8.65ZM32.6017 7.3C36.0483 7.55 39.3949 8.5 41.1931 11.25C40.3939 11.4 39.5947 11.6 38.7955 11.85C37.3969 11.4 35.9983 11 34.6497 10.55C34.3999 10.45 34.1502 10.45 33.9504 10.55C33.7506 10.65 33.6007 10.8 33.4509 11.05C32.8515 12.35 32.1022 13.65 31.4029 14.95C30.6537 15.4 29.9544 15.85 29.2051 16.3C28.4559 13.05 30.304 9.95 32.6017 7.3ZM28.8055 8.5C26.9574 11.35 25.9584 14.55 27.1072 17.75C26.358 18.3 25.6087 18.85 24.9094 19.45C24.4099 19.15 23.9104 18.8 23.361 18.55C23.7106 14.45 25.7086 10.9 28.8055 8.5ZM23.1112 21.05C22.5118 21.6 21.9124 22.2 21.363 22.85C20.8635 21.9 20.4639 20.85 20.1642 19.85C21.1632 20.15 22.2121 20.55 23.1112 21.05ZM18.8655 23.05C19.1152 23.6 19.4649 24.1 19.7646 24.65C19.1652 25.3 18.6157 26.05 18.1162 26.8C14.8694 25.65 11.6726 26.65 8.82549 28.5C11.2231 25.4 14.7695 23.4 18.8655 23.05ZM16.7176 28.95C16.268 29.6 15.8185 30.3 15.4189 31C14.0702 31.75 12.7216 32.5 11.3729 33.2C11.1232 33.3 10.9733 33.5 10.8734 33.7C10.8235 33.9 10.8235 34.15 10.8734 34.4C11.3729 35.85 11.8225 37.35 12.2221 38.85C12.0722 39.55 11.8724 40.25 11.7226 41C8.87544 39.25 7.87644 35.8 7.62669 32.3C10.274 30 13.4209 28.1 16.7176 28.95ZM5.77854 35.85C6.52779 39.2 8.12619 42.1 11.2231 43.55C11.0732 44.45 10.9234 45.4 10.8235 46.3C10.2241 46.45 9.57474 46.55 8.97534 46.8C6.37794 43.65 5.27904 39.75 5.77854 35.85ZM10.7236 51.3C9.67464 50.95 8.62569 50.5 7.67664 50C8.62569 49.5 9.67464 49.05 10.7236 48.7C10.7236 49.15 10.6736 49.55 10.6736 50C10.6736 50.45 10.6736 50.85 10.7236 51.3ZM8.97534 53.2C9.57474 53.45 10.1741 53.55 10.8235 53.7C10.9234 54.65 11.0732 55.55 11.2231 56.45C8.12619 57.9 6.47784 60.8 5.77854 64.15C5.27904 60.25 6.37794 56.35 8.97534 53.2ZM7.62669 67.7C7.82649 64.2 8.82549 60.8 11.6726 59.05C11.8225 59.8 12.0223 60.5 12.2221 61.2C11.7725 62.7 11.323 64.25 10.8734 65.65C10.7735 65.9 10.7735 66.15 10.8734 66.35C10.9733 66.55 11.1232 66.7 11.3729 66.85C12.7216 67.5 14.0702 68.25 15.4189 69C15.8185 69.7 16.268 70.4 16.6676 71.1C13.4209 71.9 10.274 70 7.62669 67.7ZM18.8655 76.95C14.7695 76.55 11.2231 74.6 8.82549 71.5C11.7226 73.35 14.9194 74.35 18.1162 73.2C18.6657 73.95 19.1652 74.7 19.7646 75.4C19.4149 75.9 19.1152 76.4 18.8655 76.95ZM20.1642 80.15C20.4639 79.15 20.8635 78.1 21.363 77.15C21.9124 77.75 22.5118 78.35 23.1112 78.95C22.2121 79.45 21.1632 79.85 20.1642 80.15ZM23.361 81.45C23.9104 81.2 24.4099 80.85 24.9094 80.55C25.6087 81.15 26.358 81.7 27.1072 82.25C25.9584 85.45 26.9574 88.65 28.8055 91.5C25.7086 89.1 23.7106 85.55 23.361 81.45ZM32.6017 92.7C30.304 90.1 28.4559 86.95 29.2051 83.7C29.9044 84.15 30.6537 84.6 31.4029 85.05C32.1022 86.35 32.8515 87.7 33.5008 88.95C33.6007 89.2 33.8005 89.35 34.0003 89.45C34.2001 89.5 34.4499 89.5 34.6996 89.45C36.0483 89 37.4469 88.6 38.8455 88.15C39.6447 88.4 40.4439 88.55 41.2431 88.75C39.3949 91.5 36.0483 92.45 32.6017 92.7ZM36.1482 94.55C39.4449 93.85 42.292 92.25 43.7905 89.3C44.7396 89.45 45.6886 89.6 46.6876 89.7C46.8375 90.25 46.9374 90.8 47.1372 91.3C43.9404 93.95 40.0443 95.05 36.1482 94.55ZM50.284 92.65C49.7845 91.75 49.3849 90.8 49.0852 89.85C49.5847 89.85 50.0343 89.9 50.5338 89.9C50.8834 89.9 51.1831 89.85 51.4828 89.85C51.1831 90.8 50.7336 91.8 50.284 92.65ZM50.5338 86.9C30.2041 86.9 13.6706 70.35 13.6706 50C13.6706 29.65 30.2041 13.1 50.5338 13.1C70.8635 13.1 87.3969 29.65 87.3969 50C87.3969 70.35 70.8635 86.9 50.5338 86.9ZM53.4808 91.35C53.6806 90.85 53.7805 90.3 53.9304 89.75C54.9294 89.65 55.8784 89.55 56.8275 89.4C58.326 92.35 61.1731 93.9 64.4199 94.6C60.5238 95.05 56.6277 93.95 53.4808 91.35ZM67.9663 92.7C64.5697 92.5 61.273 91.55 59.4748 88.9C60.324 88.7 61.1731 88.5 62.0223 88.25C63.3709 88.65 64.6696 89.05 65.9683 89.45C66.2181 89.55 66.4678 89.55 66.6676 89.45C66.8674 89.35 67.0173 89.2 67.1671 88.95C67.7665 87.75 68.4159 86.55 69.0652 85.35C69.8645 84.9 70.6636 84.45 71.4628 83.95C72.0123 87.1 70.2141 90.15 67.9663 92.7ZM71.7626 91.5C73.5608 88.7 74.5098 85.65 73.5608 82.5C74.36 81.9 75.1592 81.35 75.9584 80.7C76.4079 80.95 76.7576 81.2 77.2571 81.45C76.8575 85.55 74.8595 89.1 71.7626 91.5ZM77.7566 79.1C78.306 78.55 78.8555 78.05 79.4049 77.45C79.8045 78.3 80.1542 79.2 80.4539 80.1C79.5048 79.9 78.6057 79.55 77.7566 79.1ZM81.7026 76.95C81.5028 76.5 81.2031 76.1 81.0033 75.7C81.6527 74.95 82.2521 74.15 82.8515 73.3C85.9484 74.25 88.9953 73.25 91.7925 71.5C89.345 74.6 85.7985 76.6 81.7026 76.95ZM84.3 71.15C84.7995 70.35 85.299 69.5 85.7486 68.65C86.8974 68.05 88.0463 67.4 89.1951 66.85C89.4449 66.75 89.5947 66.55 89.6946 66.35C89.7446 66.15 89.7446 65.9 89.6946 65.65C89.295 64.45 88.9454 63.2 88.5957 62C88.8954 61.1 89.0952 60.2 89.295 59.25C91.8425 61.05 92.7416 64.35 92.9414 67.7C90.3939 69.9 87.3969 71.7 84.3 71.15ZM94.7895 64.15C94.0902 60.95 92.5917 58.15 89.7945 56.6C89.9444 55.6 90.0942 54.6 90.1941 53.55C90.6437 53.4 91.0932 53.35 91.5428 53.2C94.1901 56.35 95.289 60.25 94.7895 64.15Z" fill="#63AA7E"/>
<path d="M69.5263 51.0001V45.1761L70.1023 45.8481H64.9823C62.6356 45.8481 60.7903 45.3574 59.4463 44.3761C58.1236 43.3734 57.4623 41.9334 57.4623 40.0561C57.4623 38.0508 58.1663 36.5254 59.5743 35.4801C61.0036 34.4348 62.9023 33.9121 65.2703 33.9121H73.1103V51.0001H69.5263ZM57.2383 51.0001L61.8463 44.4721H65.9423L61.5263 51.0001H57.2383ZM69.5263 43.8961V36.2161L70.1023 37.2721H65.3983C64.161 37.2721 63.2009 37.5068 62.5183 37.9761C61.8569 38.4241 61.5263 39.1601 61.5263 40.1841C61.5263 42.1041 62.7743 43.0641 65.2703 43.0641H70.1023L69.5263 43.8961Z" fill="#63AA7E"/>
<path d="M46.25 43.7679V40.4399H55.05V43.7679H46.25Z" fill="#63AA7E"/>
<path d="M34.3125 51.3201C32.7338 51.3201 31.1872 51.0961 29.6725 50.6481C28.1792 50.1788 26.9205 49.5388 25.8965 48.7281L27.6885 45.4961C28.4992 46.1574 29.4805 46.6908 30.6325 47.0961C31.7845 47.5014 32.9898 47.7041 34.2485 47.7041C35.7418 47.7041 36.9045 47.4054 37.7365 46.8081C38.5685 46.1894 38.9845 45.3574 38.9845 44.3121C38.9845 43.2881 38.6005 42.4774 37.8325 41.8801C37.0645 41.2828 35.8272 40.9841 34.1205 40.9841H32.0725V38.1361L38.4725 30.5201L39.0165 32.0881H26.9845V28.6001H42.2485V31.3841L35.8485 39.0001L33.6725 37.7201H34.9205C37.6725 37.7201 39.7312 38.3388 41.0965 39.5761C42.4832 40.7921 43.1765 42.3601 43.1765 44.2801C43.1765 45.5388 42.8565 46.7014 42.2165 47.7681C41.5765 48.8348 40.5952 49.6988 39.2725 50.3601C37.9712 51.0001 36.3178 51.3201 34.3125 51.3201Z" fill="#63AA7E"/>
<path d="M78.8901 67.0001V64.0881L79.1781 64.4241H76.6181C75.4448 64.4241 74.5221 64.1787 73.8501 63.6881C73.1888 63.1867 72.8581 62.4667 72.8581 61.5281C72.8581 60.5254 73.2101 59.7627 73.9141 59.2401C74.6288 58.7174 75.5781 58.4561 76.7621 58.4561H80.6821V67.0001H78.8901ZM72.7461 67.0001L75.0501 63.7361H77.0981L74.8901 67.0001H72.7461ZM78.8901 63.4481V59.6081L79.1781 60.1361H76.8261C76.2074 60.1361 75.7274 60.2534 75.3861 60.4881C75.0554 60.7121 74.8901 61.0801 74.8901 61.5921C74.8901 62.5521 75.5141 63.0321 76.7621 63.0321H79.1781L78.8901 63.4481Z" fill="#63AA7E"/>
<path d="M61.7812 66.9841L61.8773 65.3041C61.9519 65.3147 62.0213 65.3254 62.0853 65.3361C62.1493 65.3467 62.2079 65.3521 62.2612 65.3521C62.5919 65.3521 62.8479 65.2507 63.0293 65.0481C63.2106 64.8454 63.3439 64.5734 63.4292 64.2321C63.5252 63.8801 63.5893 63.4907 63.6213 63.0641C63.6639 62.6267 63.6959 62.1894 63.7173 61.7521L63.8612 58.4561H70.7733V67.0001H68.7733V59.6081L69.2373 60.1521H65.1732L65.6052 59.5921L65.4932 61.8481C65.4612 62.6054 65.3973 63.3094 65.3013 63.9601C65.2159 64.6001 65.0773 65.1601 64.8853 65.6401C64.7039 66.1201 64.4479 66.4934 64.1172 66.7601C63.7972 67.0267 63.3866 67.1601 62.8853 67.1601C62.7253 67.1601 62.5493 67.1441 62.3573 67.1121C62.1759 67.0801 61.9839 67.0374 61.7812 66.9841Z" fill="#63AA7E"/>
<path d="M56.9348 67.1119C55.9855 67.1119 55.1535 66.9252 54.4388 66.5519C53.7348 66.1679 53.1855 65.6452 52.7908 64.9839C52.4068 64.3225 52.2148 63.5705 52.2148 62.7279C52.2148 61.8745 52.4015 61.1225 52.7748 60.4719C53.1588 59.8105 53.6815 59.2932 54.3428 58.9199C55.0148 58.5465 55.7775 58.3599 56.6308 58.3599C57.4628 58.3599 58.2042 58.5412 58.8548 58.9039C59.5055 59.2665 60.0175 59.7785 60.3908 60.4399C60.7642 61.1012 60.9508 61.8799 60.9508 62.7759C60.9508 62.8612 60.9455 62.9572 60.9348 63.0639C60.9348 63.1705 60.9295 63.2719 60.9188 63.3679H53.7988V62.0399H59.8628L59.0788 62.4559C59.0895 61.9652 58.9882 61.5332 58.7748 61.1599C58.5615 60.7865 58.2682 60.4932 57.8948 60.2799C57.5322 60.0665 57.1108 59.9599 56.6308 59.9599C56.1402 59.9599 55.7082 60.0665 55.3348 60.2799C54.9722 60.4932 54.6842 60.7919 54.4708 61.1759C54.2682 61.5492 54.1668 61.9919 54.1668 62.5039V62.8239C54.1668 63.3359 54.2842 63.7892 54.5188 64.1839C54.7535 64.5785 55.0842 64.8825 55.5108 65.0959C55.9375 65.3092 56.4282 65.4159 56.9828 65.4159C57.4628 65.4159 57.8948 65.3412 58.2788 65.1919C58.6628 65.0425 59.0042 64.8079 59.3028 64.4879L60.3748 65.7199C59.9908 66.1679 59.5055 66.5145 58.9188 66.7599C58.3428 66.9945 57.6815 67.1119 56.9348 67.1119Z" fill="#63AA7E"/>
<path d="M47.9017 66.0721V60.1521H44.6217L44.5737 61.5281C44.5524 62.0187 44.5204 62.4934 44.4777 62.9521C44.435 63.4001 44.3657 63.8161 44.2697 64.2001C44.1737 64.5734 44.035 64.8827 43.8537 65.1281C43.6724 65.3734 43.4324 65.5334 43.1337 65.6081L41.1497 65.3041C41.4697 65.3041 41.7257 65.2027 41.9177 65.0001C42.1204 64.7867 42.275 64.4987 42.3817 64.1361C42.499 63.7627 42.5844 63.3414 42.6377 62.8721C42.691 62.3921 42.7284 61.8961 42.7497 61.3841L42.8617 58.4561H49.9017V66.0721H47.9017ZM40.8457 68.9041V65.3041H51.1657V68.9041H49.2937V67.0001H42.7017V68.9041H40.8457Z" fill="#63AA7E"/>
<path d="M35.9505 67.1119C35.0011 67.1119 34.1691 66.9252 33.4545 66.5519C32.7505 66.1679 32.2011 65.6452 31.8065 64.9839C31.4225 64.3225 31.2305 63.5705 31.2305 62.7279C31.2305 61.8745 31.4171 61.1225 31.7905 60.4719C32.1745 59.8105 32.6971 59.2932 33.3585 58.9199C34.0305 58.5465 34.7931 58.3599 35.6465 58.3599C36.4785 58.3599 37.2198 58.5412 37.8705 58.9039C38.5211 59.2665 39.0331 59.7785 39.4065 60.4399C39.7798 61.1012 39.9665 61.8799 39.9665 62.7759C39.9665 62.8612 39.9611 62.9572 39.9505 63.0639C39.9505 63.1705 39.9451 63.2719 39.9345 63.3679H32.8145V62.0399H38.8785L38.0945 62.4559C38.1051 61.9652 38.0038 61.5332 37.7905 61.1599C37.5771 60.7865 37.2838 60.4932 36.9105 60.2799C36.5478 60.0665 36.1265 59.9599 35.6465 59.9599C35.1558 59.9599 34.7238 60.0665 34.3505 60.2799C33.9878 60.4932 33.6998 60.7919 33.4865 61.1759C33.2838 61.5492 33.1825 61.9919 33.1825 62.5039V62.8239C33.1825 63.3359 33.2998 63.7892 33.5345 64.1839C33.7691 64.5785 34.0998 64.8825 34.5265 65.0959C34.9531 65.3092 35.4438 65.4159 35.9985 65.4159C36.4785 65.4159 36.9105 65.3412 37.2945 65.1919C37.6785 65.0425 38.0198 64.8079 38.3185 64.4879L39.3905 65.7199C39.0065 66.1679 38.5211 66.5145 37.9345 66.7599C37.3585 66.9945 36.6971 67.1119 35.9505 67.1119Z" fill="#63AA7E"/>
<path d="M20.9824 67.0001V58.4561H22.9824V61.9281H27.2864V58.4561H29.2864V67.0001H27.2864V63.6241H22.9824V67.0001H20.9824Z" fill="#63AA7E"/>
</svg>
