<svg width="100" height="100" viewBox="0 0 100 100" fill="none" xmlns="http://www.w3.org/2000/svg">
<path d="M96.3536 67.05C97.8521 61.9 96.7532 56.45 93.5065 52.15C94.8052 51.45 96.004 50.7 96.953 50C96.004 49.3 94.8052 48.5 93.5065 47.85C96.7532 43.55 97.8521 38.1 96.3536 32.95C96.8032 32.85 97.2028 32.65 97.6024 32.4C98.7512 31.7 99.3506 30.5 99.9001 29.3C98.6513 28.8 97.4026 28.45 96.0539 28.7C95.6044 28.8 95.1548 28.95 94.8052 29.2C92.2078 24.5 87.6124 21.45 82.2677 20.7C82.7173 19.3 83.017 17.9 83.1668 16.75C82.018 16.9 80.6194 17.2 79.2208 17.65C78.4715 12.35 75.4246 7.7 70.7293 5.1C70.979 4.7 71.1289 4.3 71.2288 3.85C71.5285 2.5 71.1289 1.25 70.6294 0C69.4306 0.55 68.2318 1.15 67.4825 2.3C67.2328 2.7 67.033 3.1 66.9331 3.55C61.7882 2.05 56.3437 3.15 52.0479 6.4C51.4485 5.1 50.6493 3.9 49.95 2.95C49.2507 3.9 48.4515 5.1 47.8022 6.4C43.5065 3.15 38.0619 2.1 32.9171 3.55C32.8172 3.1 32.6673 2.7 32.4176 2.3C31.6683 1.15 30.4695 0.55 29.2707 0C28.7712 1.25 28.4216 2.5 28.6713 3.85C28.7712 4.3 28.9211 4.75 29.1708 5.1C24.4755 7.7 21.4286 12.3 20.6793 17.65C19.2807 17.2 17.8821 16.9 16.7333 16.75C16.8831 17.9 17.1828 19.3 17.6324 20.7C12.2877 21.45 7.69231 24.5 5.0949 29.2C4.6953 28.95 4.2957 28.8 3.84615 28.7C2.4975 28.4 1.24875 28.8 0 29.3C0.549451 30.5 1.14885 31.7 2.2977 32.45C2.6973 32.7 3.0969 32.9 3.54645 33C2.04795 38.15 3.14685 43.6 6.39361 47.9C5.0949 48.5 3.8961 49.3 2.94705 50C3.8961 50.7 5.0949 51.5 6.39361 52.15C3.14685 56.45 2.04795 61.9 3.54645 67.05C3.0969 67.15 2.6973 67.35 2.2977 67.6C1.14885 68.3 0.549451 69.5 0 70.7C1.24875 71.2 2.4975 71.55 3.84615 71.3C4.2957 71.2 4.74525 71.05 5.0949 70.8C7.69231 75.5 12.2877 78.55 17.6324 79.3C17.1828 80.7 16.8831 82.1 16.7333 83.25C17.8821 83.1 19.2807 82.8 20.6793 82.35C21.4286 87.65 24.4755 92.3 29.1708 94.9C28.9211 95.3 28.7712 95.7 28.6713 96.15C28.3716 97.5 28.7712 98.75 29.2707 100C30.4695 99.45 31.6683 98.85 32.4176 97.7C32.6673 97.3 32.8671 96.9 32.967 96.45C38.1119 97.95 43.5564 96.85 47.8521 93.6C48.5514 94.9 49.3007 96.1 50 97.05C50.6993 96.1 51.4985 94.9 52.1478 93.6C56.4436 96.85 61.8881 97.95 67.033 96.45C67.1329 96.9 67.3327 97.3 67.5824 97.7C68.3317 98.85 69.5305 99.45 70.7293 100C71.2288 98.75 71.5784 97.5 71.3287 96.15C71.2288 95.7 71.0789 95.25 70.8292 94.9C75.5245 92.3 78.5714 87.7 79.3207 82.35C80.7193 82.8 82.1179 83.1 83.2667 83.25C83.1169 82.1 82.8172 80.7 82.3676 79.3C87.6623 78.55 92.3077 75.5 94.9051 70.8C95.3047 71.05 95.7043 71.2 96.1538 71.3C97.5025 71.6 98.7512 71.2 100 70.7C99.4505 69.5 98.8511 68.3 97.7023 67.55C97.2028 67.3 96.8032 67.15 96.3536 67.05ZM91.2587 46.8C90.8092 46.65 90.3596 46.55 89.9101 46.45C89.8102 45.4 89.6603 44.4 89.5105 43.4C92.3576 41.9 93.8062 39.05 94.5055 35.85C94.955 39.75 93.8561 43.65 91.2587 46.8ZM90.01 48.85C90.9091 49.15 91.7582 49.55 92.5574 50C91.7582 50.45 90.8591 50.85 90.01 51.15C90.01 50.75 90.0599 50.4 90.0599 50C90.0599 49.6 90.01 49.25 90.01 48.85ZM92.6074 32.3C92.4076 35.65 91.5085 38.9 88.961 40.75C88.7612 39.85 88.5115 38.9 88.2617 38C88.6114 36.75 89.011 35.5 89.3606 34.35C89.4605 34.1 89.4605 33.85 89.3606 33.65C89.2607 33.45 89.1109 33.3 88.8611 33.15C87.7123 32.6 86.5634 31.95 85.4146 31.35C84.965 30.5 84.4655 29.65 83.966 28.85C87.0629 28.3 90.0599 30.1 92.6074 32.3ZM81.3686 23.05C85.4645 23.45 88.961 25.4 91.4086 28.5C88.6613 26.7 85.5644 25.75 82.4675 26.7C81.8681 25.9 81.2687 25.1 80.6194 24.3C80.9191 23.85 81.1688 23.5 81.3686 23.05ZM80.0699 19.85C79.8202 20.75 79.4705 21.65 79.021 22.5C78.4715 21.95 77.9221 21.4 77.3726 20.85C78.2717 20.45 79.1708 20.1 80.0699 19.85ZM76.8731 18.55C76.4236 18.75 76.024 19.05 75.5744 19.3C74.8252 18.65 73.976 18.1 73.1768 17.5C74.1758 14.4 73.1768 11.3 71.3786 8.5C74.5255 10.9 76.5235 14.45 76.8731 18.55ZM67.6324 7.3C69.8801 9.85 71.6783 12.85 71.0789 16C70.2797 15.5 69.4805 15.05 68.6813 14.6C68.032 13.4 67.3826 12.2 66.7832 11C66.6833 10.75 66.4835 10.6 66.2837 10.5C66.0839 10.45 65.8342 10.45 65.5844 10.5C64.3357 10.9 62.987 11.3 61.6384 11.7C60.7892 11.55 59.9401 11.3 59.0909 11.1C60.8891 8.5 64.2358 7.55 67.6324 7.3ZM64.0859 5.45C60.8392 6.15 57.992 7.7 56.4935 10.65C55.5445 10.5 54.5454 10.35 53.5964 10.3C53.4465 9.75 53.3467 9.25 53.1469 8.7C56.2937 6.05 60.1898 4.95 64.0859 5.45ZM49.95 7.35C50.3996 8.25 50.8491 9.2 51.1488 10.15C50.7992 10.15 50.4995 10.1 50.1998 10.1C49.7003 10.1 49.2507 10.15 48.7512 10.15C49.0509 9.2 49.4505 8.25 49.95 7.35ZM46.7532 8.65C46.5534 9.2 46.4535 9.75 46.3536 10.3C45.3546 10.35 44.4056 10.55 43.4565 10.7C41.958 7.7 39.1109 6.15 35.8142 5.45C39.7103 4.95 43.6064 6.05 46.7532 8.65ZM32.2677 7.3C35.7143 7.55 39.0609 8.5 40.8591 11.25C40.0599 11.4 39.2607 11.6 38.4615 11.85C37.0629 11.4 35.6643 11 34.3157 10.55C34.0659 10.45 33.8162 10.45 33.6164 10.55C33.4166 10.65 33.2667 10.8 33.1169 11.05C32.5175 12.35 31.7682 13.65 31.0689 14.95C30.3197 15.4 29.6204 15.85 28.8711 16.3C28.1219 13.05 29.97 9.95 32.2677 7.3ZM28.4715 8.5C26.6234 11.35 25.6244 14.55 26.7732 17.75C26.024 18.3 25.2747 18.85 24.5754 19.45C24.0759 19.15 23.5764 18.8 23.027 18.55C23.3766 14.45 25.3746 10.9 28.4715 8.5ZM22.7772 21.05C22.1778 21.6 21.5784 22.2 21.029 22.85C20.5295 21.9 20.1299 20.85 19.8302 19.85C20.8292 20.15 21.8781 20.55 22.7772 21.05ZM18.5315 23.05C18.7812 23.6 19.1309 24.1 19.4306 24.65C18.8312 25.3 18.2817 26.05 17.7822 26.8C14.5355 25.65 11.3387 26.65 8.49151 28.5C10.8891 25.4 14.4356 23.4 18.5315 23.05ZM16.3836 28.95C15.9341 29.6 15.4845 30.3 15.0849 31C13.7363 31.75 12.3876 32.5 11.039 33.2C10.7892 33.3 10.6394 33.5 10.5395 33.7C10.4895 33.9 10.4895 34.15 10.5395 34.4C11.039 35.85 11.4885 37.35 11.8881 38.85C11.7383 39.55 11.5385 40.25 11.3886 41C8.54146 39.25 7.54246 35.8 7.29271 32.3C9.94006 30 13.0869 28.1 16.3836 28.95ZM5.44456 35.85C6.19381 39.2 7.79221 42.1 10.8891 43.55C10.7393 44.45 10.5894 45.4 10.4895 46.3C9.89011 46.45 9.24076 46.55 8.64136 46.8C6.04396 43.65 4.94505 39.75 5.44456 35.85ZM10.3896 51.3C9.34066 50.95 8.29171 50.5 7.34266 50C8.29171 49.5 9.34066 49.05 10.3896 48.7C10.3896 49.15 10.3397 49.55 10.3397 50C10.3397 50.45 10.3397 50.85 10.3896 51.3ZM8.64136 53.2C9.24076 53.45 9.84016 53.55 10.4895 53.7C10.5894 54.65 10.7393 55.55 10.8891 56.45C7.79221 57.9 6.14386 60.8 5.44456 64.15C4.94505 60.25 6.04396 56.35 8.64136 53.2ZM7.29271 67.7C7.49251 64.2 8.49151 60.8 11.3387 59.05C11.4885 59.8 11.6883 60.5 11.8881 61.2C11.4386 62.7 10.989 64.25 10.5395 65.65C10.4396 65.9 10.4396 66.15 10.5395 66.35C10.6394 66.55 10.7892 66.7 11.039 66.85C12.3876 67.5 13.7363 68.25 15.0849 69C15.4845 69.7 15.9341 70.4 16.3337 71.1C13.0869 71.9 9.94006 70 7.29271 67.7ZM18.5315 76.95C14.4356 76.55 10.8891 74.6 8.49151 71.5C11.3886 73.35 14.5854 74.35 17.7822 73.2C18.3317 73.95 18.8312 74.7 19.4306 75.4C19.0809 75.9 18.7812 76.4 18.5315 76.95ZM19.8302 80.15C20.1299 79.15 20.5295 78.1 21.029 77.15C21.5784 77.75 22.1778 78.35 22.7772 78.95C21.8781 79.45 20.8292 79.85 19.8302 80.15ZM23.027 81.45C23.5764 81.2 24.0759 80.85 24.5754 80.55C25.2747 81.15 26.024 81.7 26.7732 82.25C25.6244 85.45 26.6234 88.65 28.4715 91.5C25.3746 89.1 23.3766 85.55 23.027 81.45ZM32.2677 92.7C29.97 90.1 28.1219 86.95 28.8711 83.7C29.5704 84.15 30.3197 84.6 31.0689 85.05C31.7682 86.35 32.5175 87.7 33.1668 88.95C33.2667 89.2 33.4665 89.35 33.6663 89.45C33.8661 89.5 34.1159 89.5 34.3656 89.45C35.7143 89 37.1129 88.6 38.5115 88.15C39.3107 88.4 40.1099 88.55 40.9091 88.75C39.0609 91.5 35.7143 92.45 32.2677 92.7ZM35.8142 94.55C39.1109 93.85 41.958 92.25 43.4565 89.3C44.4056 89.45 45.3546 89.6 46.3536 89.7C46.5035 90.25 46.6034 90.8 46.8032 91.3C43.6064 93.95 39.7103 95.05 35.8142 94.55ZM49.95 92.65C49.4505 91.75 49.0509 90.8 48.7512 89.85C49.2507 89.85 49.7003 89.9 50.1998 89.9C50.5494 89.9 50.8491 89.85 51.1488 89.85C50.8491 90.8 50.3996 91.8 49.95 92.65ZM50.1998 86.9C29.8701 86.9 13.3367 70.35 13.3367 50C13.3367 29.65 29.8701 13.1 50.1998 13.1C70.5295 13.1 87.0629 29.65 87.0629 50C87.0629 70.35 70.5295 86.9 50.1998 86.9ZM53.1469 91.35C53.3467 90.85 53.4465 90.3 53.5964 89.75C54.5954 89.65 55.5445 89.55 56.4935 89.4C57.992 92.35 60.8392 93.9 64.0859 94.6C60.1898 95.05 56.2937 93.95 53.1469 91.35ZM67.6324 92.7C64.2358 92.5 60.9391 91.55 59.1409 88.9C59.99 88.7 60.8392 88.5 61.6883 88.25C63.037 88.65 64.3357 89.05 65.6344 89.45C65.8841 89.55 66.1339 89.55 66.3337 89.45C66.5335 89.35 66.6833 89.2 66.8332 88.95C67.4326 87.75 68.0819 86.55 68.7313 85.35C69.5305 84.9 70.3297 84.45 71.1289 83.95C71.6783 87.1 69.8801 90.15 67.6324 92.7ZM71.4286 91.5C73.2268 88.7 74.1758 85.65 73.2268 82.5C74.026 81.9 74.8252 81.35 75.6244 80.7C76.0739 80.95 76.4236 81.2 76.9231 81.45C76.5235 85.55 74.5255 89.1 71.4286 91.5ZM77.4226 79.1C77.972 78.55 78.5215 78.05 79.0709 77.45C79.4705 78.3 79.8202 79.2 80.1199 80.1C79.1708 79.9 78.2717 79.55 77.4226 79.1ZM81.3686 76.95C81.1688 76.5 80.8691 76.1 80.6693 75.7C81.3187 74.95 81.9181 74.15 82.5175 73.3C85.6144 74.25 88.6613 73.25 91.4585 71.5C89.011 74.6 85.4645 76.6 81.3686 76.95ZM83.966 71.15C84.4655 70.35 84.965 69.5 85.4146 68.65C86.5634 68.05 87.7123 67.4 88.8611 66.85C89.1109 66.75 89.2607 66.55 89.3606 66.35C89.4106 66.15 89.4106 65.9 89.3606 65.65C88.961 64.45 88.6114 63.2 88.2617 62C88.5614 61.1 88.7612 60.2 88.961 59.25C91.5085 61.05 92.4076 64.35 92.6074 67.7C90.0599 69.9 87.0629 71.7 83.966 71.15ZM94.4555 64.15C93.7562 60.95 92.2577 58.15 89.4605 56.6C89.6104 55.6 89.7602 54.6 89.8601 53.55C90.3097 53.4 90.7592 53.35 91.2088 53.2C93.8561 56.35 94.955 60.25 94.4555 64.15Z" fill="#63AA7E"/>
<path d="M65.9735 51.0001V45.1761L66.5495 45.8481H61.4295C59.0829 45.8481 57.2375 45.3574 55.8935 44.3761C54.5709 43.3734 53.9095 41.9334 53.9095 40.0561C53.9095 38.0508 54.6135 36.5254 56.0215 35.4801C57.4509 34.4348 59.3495 33.9121 61.7175 33.9121H69.5576V51.0001H65.9735ZM53.6855 51.0001L58.2935 44.4721H62.3895L57.9735 51.0001H53.6855ZM65.9735 43.8961V36.2161L66.5495 37.2721H61.8455C60.6082 37.2721 59.6482 37.5068 58.9655 37.9761C58.3042 38.4241 57.9735 39.1601 57.9735 40.1841C57.9735 42.1041 59.2215 43.0641 61.7175 43.0641H66.5495L65.9735 43.8961Z" fill="#63AA7E"/>
<path d="M42.6973 43.7679V40.4399H51.4973V43.7679H42.6973Z" fill="#63AA7E"/>
<path d="M33.7419 51.0001V30.2001L35.5659 32.0881H29.0059V28.6001H37.9019V51.0001H33.7419Z" fill="#63AA7E"/>
<path d="M78.5561 67.0001V64.0881L78.8441 64.4241H76.2841C75.1108 64.4241 74.1881 64.1787 73.5161 63.6881C72.8548 63.1867 72.5241 62.4667 72.5241 61.5281C72.5241 60.5254 72.8761 59.7627 73.5801 59.2401C74.2948 58.7174 75.2441 58.4561 76.4281 58.4561H80.3481V67.0001H78.5561ZM72.4121 67.0001L74.7161 63.7361H76.7641L74.5561 67.0001H72.4121ZM78.5561 63.4481V59.6081L78.8441 60.1361H76.4921C75.8734 60.1361 75.3934 60.2534 75.0521 60.4881C74.7214 60.7121 74.5561 61.0801 74.5561 61.5921C74.5561 62.5521 75.1801 63.0321 76.4281 63.0321H78.8441L78.5561 63.4481Z" fill="#63AA7E"/>
<path d="M61.4473 66.9841L61.5433 65.3041C61.6179 65.3147 61.6873 65.3254 61.7513 65.3361C61.8153 65.3467 61.8739 65.3521 61.9273 65.3521C62.2579 65.3521 62.5139 65.2507 62.6953 65.0481C62.8766 64.8454 63.0099 64.5734 63.0953 64.2321C63.1913 63.8801 63.2553 63.4907 63.2873 63.0641C63.3299 62.6267 63.3619 62.1894 63.3833 61.7521L63.5273 58.4561H70.4393V67.0001H68.4393V59.6081L68.9033 60.1521H64.8393L65.2713 59.5921L65.1593 61.8481C65.1273 62.6054 65.0633 63.3094 64.9673 63.9601C64.8819 64.6001 64.7433 65.1601 64.5513 65.6401C64.3699 66.1201 64.1139 66.4934 63.7833 66.7601C63.4633 67.0267 63.0526 67.1601 62.5513 67.1601C62.3913 67.1601 62.2153 67.1441 62.0233 67.1121C61.8419 67.0801 61.6499 67.0374 61.4473 66.9841Z" fill="#63AA7E"/>
<path d="M56.6009 67.1119C55.6515 67.1119 54.8195 66.9252 54.1049 66.5519C53.4009 66.1679 52.8515 65.6452 52.4569 64.9839C52.0729 64.3225 51.8809 63.5705 51.8809 62.7279C51.8809 61.8745 52.0675 61.1225 52.4409 60.4719C52.8249 59.8105 53.3475 59.2932 54.0089 58.9199C54.6809 58.5465 55.4435 58.3599 56.2969 58.3599C57.1289 58.3599 57.8702 58.5412 58.5209 58.9039C59.1715 59.2665 59.6835 59.7785 60.0569 60.4399C60.4302 61.1012 60.6169 61.8799 60.6169 62.7759C60.6169 62.8612 60.6115 62.9572 60.6009 63.0639C60.6009 63.1705 60.5955 63.2719 60.5849 63.3679H53.4649V62.0399H59.5289L58.7449 62.4559C58.7555 61.9652 58.6542 61.5332 58.4409 61.1599C58.2275 60.7865 57.9342 60.4932 57.5609 60.2799C57.1982 60.0665 56.7769 59.9599 56.2969 59.9599C55.8062 59.9599 55.3742 60.0665 55.0009 60.2799C54.6382 60.4932 54.3502 60.7919 54.1369 61.1759C53.9342 61.5492 53.8329 61.9919 53.8329 62.5039V62.8239C53.8329 63.3359 53.9502 63.7892 54.1849 64.1839C54.4195 64.5785 54.7502 64.8825 55.1769 65.0959C55.6035 65.3092 56.0942 65.4159 56.6489 65.4159C57.1289 65.4159 57.5609 65.3412 57.9449 65.1919C58.3289 65.0425 58.6702 64.8079 58.9689 64.4879L60.0409 65.7199C59.6569 66.1679 59.1715 66.5145 58.5849 66.7599C58.0089 66.9945 57.3475 67.1119 56.6009 67.1119Z" fill="#63AA7E"/>
<path d="M47.5677 66.0721V60.1521H44.2877L44.2397 61.5281C44.2184 62.0187 44.1864 62.4934 44.1437 62.9521C44.1011 63.4001 44.0317 63.8161 43.9357 64.2001C43.8397 64.5734 43.7011 64.8827 43.5197 65.1281C43.3384 65.3734 43.0984 65.5334 42.7997 65.6081L40.8157 65.3041C41.1357 65.3041 41.3917 65.2027 41.5837 65.0001C41.7864 64.7867 41.9411 64.4987 42.0477 64.1361C42.1651 63.7627 42.2504 63.3414 42.3037 62.8721C42.3571 62.3921 42.3944 61.8961 42.4157 61.3841L42.5277 58.4561H49.5677V66.0721H47.5677ZM40.5117 68.9041V65.3041H50.8317V68.9041H48.9597V67.0001H42.3677V68.9041H40.5117Z" fill="#63AA7E"/>
<path d="M35.6165 67.1119C34.6672 67.1119 33.8352 66.9252 33.1205 66.5519C32.4165 66.1679 31.8672 65.6452 31.4725 64.9839C31.0885 64.3225 30.8965 63.5705 30.8965 62.7279C30.8965 61.8745 31.0832 61.1225 31.4565 60.4719C31.8405 59.8105 32.3632 59.2932 33.0245 58.9199C33.6965 58.5465 34.4592 58.3599 35.3125 58.3599C36.1445 58.3599 36.8858 58.5412 37.5365 58.9039C38.1872 59.2665 38.6992 59.7785 39.0725 60.4399C39.4458 61.1012 39.6325 61.8799 39.6325 62.7759C39.6325 62.8612 39.6272 62.9572 39.6165 63.0639C39.6165 63.1705 39.6112 63.2719 39.6005 63.3679H32.4805V62.0399H38.5445L37.7605 62.4559C37.7712 61.9652 37.6698 61.5332 37.4565 61.1599C37.2432 60.7865 36.9498 60.4932 36.5765 60.2799C36.2138 60.0665 35.7925 59.9599 35.3125 59.9599C34.8218 59.9599 34.3898 60.0665 34.0165 60.2799C33.6538 60.4932 33.3658 60.7919 33.1525 61.1759C32.9498 61.5492 32.8485 61.9919 32.8485 62.5039V62.8239C32.8485 63.3359 32.9658 63.7892 33.2005 64.1839C33.4352 64.5785 33.7658 64.8825 34.1925 65.0959C34.6192 65.3092 35.1098 65.4159 35.6645 65.4159C36.1445 65.4159 36.5765 65.3412 36.9605 65.1919C37.3445 65.0425 37.6858 64.8079 37.9845 64.4879L39.0565 65.7199C38.6725 66.1679 38.1872 66.5145 37.6005 66.7599C37.0245 66.9945 36.3632 67.1119 35.6165 67.1119Z" fill="#63AA7E"/>
<path d="M20.6484 67.0001V58.4561H22.6484V61.9281H26.9524V58.4561H28.9524V67.0001H26.9524V63.6241H22.6484V67.0001H20.6484Z" fill="#63AA7E"/>
</svg>
